<svg width="20" height="28" fill="none" xmlns="http://www.w3.org/2000/svg"><g filter="url(#a)"><path fill-rule="evenodd" clip-rule="evenodd" d="M9 1a4.085 4.085 0 0 0-2.908 1.227A4.237 4.237 0 0 0 4.884 5.19v2.04H1.535A.54.54 0 0 0 1 7.774v13.953C1 23.535 2.439 25 4.212 25h9.576C15.561 25 17 23.535 17 21.727V7.774a.55.55 0 0 0-.157-.385.53.53 0 0 0-.378-.16h-3.35v-2.04a4.236 4.236 0 0 0-1.207-2.962A4.085 4.085 0 0 0 9 1ZM5.955 5.189c0-1.714 1.363-3.104 3.045-3.104s3.046 1.39 3.046 3.104v2.04H5.955v-2.04Zm9.975 3.13v13.408c0 .579-.226 1.134-.628 1.543-.401.409-.946.639-1.513.639H4.212c-1.183 0-2.141-.977-2.141-2.182V8.32h2.813v2.95c0 .302.24.546.536.546a.54.54 0 0 0 .535-.545V8.32h6.09v2.95c0 .302.241.546.536.546a.54.54 0 0 0 .535-.545V8.32h2.814Z" fill="#fff"/></g><defs><filter id="a" x="0" y="0" width="20" height="28" filterUnits="userSpaceOnUse" color-interpolation-filters="sRGB"><feFlood flood-opacity="0" result="BackgroundImageFix"/><feColorMatrix in="SourceAlpha" values="0 0 0 0 0 0 0 0 0 0 0 0 0 0 0 0 0 0 127 0" result="hardAlpha"/><feOffset dx="1" dy="1"/><feGaussianBlur stdDeviation="1"/><feColorMatrix values="0 0 0 0 0 0 0 0 0 0 0 0 0 0 0 0 0 0 0.1 0"/><feBlend in2="BackgroundImageFix" result="effect1_dropShadow_9201_611"/><feBlend in="SourceGraphic" in2="effect1_dropShadow_9201_611" result="shape"/></filter></defs></svg>