<svg aria-hidden="true" style="position: absolute; width: 0; height: 0; overflow: hidden;" version="1.1" xmlns="http://www.w3.org/2000/svg" xmlns:xlink="http://www.w3.org/1999/xlink">
<defs>
<symbol id="icon-basket" viewBox="0 0 23 32">
<path d="M10.286 1.143c-1.302 0.004-2.478 0.539-3.323 1.401l-0.001 0.001c-0.854 0.872-1.381 2.068-1.381 3.386 0 0 0 0 0 0v-0 2.331h-3.827c-0.338 0.003-0.611 0.278-0.611 0.617 0 0.002 0 0.003 0 0.005v-0 15.946c0 2.066 1.645 3.741 3.671 3.741h10.944c2.026 0 3.671-1.674 3.671-3.741v-15.946c0-0 0-0 0-0 0-0.171-0.068-0.326-0.18-0.44l0 0c-0.11-0.112-0.263-0.182-0.432-0.183h-3.829v-2.331c0-0 0-0.001 0-0.001 0-1.318-0.526-2.512-1.38-3.385l0.001 0.001c-0.845-0.863-2.021-1.399-3.323-1.402h-0.001zM6.806 5.93c0-1.959 1.558-3.547 3.48-3.547s3.481 1.589 3.481 3.547v2.331h-6.961v-2.331zM18.206 9.507v15.323c0 0.662-0.258 1.296-0.718 1.763-0.458 0.467-1.081 0.73-1.729 0.73h-10.945c-1.352 0-2.447-1.117-2.447-2.494v-15.322h3.215v3.371c0 0.345 0.274 0.624 0.613 0.624 0.338-0.003 0.611-0.278 0.611-0.617 0-0.002 0-0.004-0-0.006v0-3.373h6.96v3.371c0 0.345 0.275 0.624 0.613 0.624 0.338-0.003 0.611-0.278 0.611-0.617 0-0.002 0-0.004-0-0.006v0-3.373h3.216z"></path>
</symbol>
<symbol id="icon-chevron-down" viewBox="0 0 52 32">
<path d="M46.888 2l-20.888 21.576-20.888-21.576-3.112 3.212 24 24.788 24-24.788-3.112-3.212z"></path>
</symbol>
<symbol id="icon-chevron-right" viewBox="0 0 19 32">
<path d="M0 2.075l14.384 13.925-14.384 13.925 2.141 2.075 16.525-16-16.525-16-2.141 2.075z"></path>
</symbol>
<symbol id="icon-cross" viewBox="0 0 32 32">
<path d="M0.374 31.626c0.5 0.5 1.312 0.5 1.812 0l13.814-13.818 13.816 13.816c0.233 0.24 0.558 0.388 0.918 0.388 0.707 0 1.28-0.573 1.28-1.28 0-0.36-0.149-0.685-0.388-0.918l-0-0-13.818-13.814 13.816-13.814c0.232-0.232 0.376-0.552 0.376-0.906 0-0.707-0.573-1.281-1.281-1.281-0.353 0-0.673 0.143-0.905 0.375v0l-13.814 13.816-13.814-13.816c-0.232-0.232-0.552-0.375-0.906-0.375-0.708 0-1.281 0.574-1.281 1.281 0 0.354 0.143 0.674 0.375 0.906l13.816 13.814-13.816 13.816c-0.232 0.232-0.375 0.552-0.375 0.905s0.143 0.673 0.375 0.905v0z"></path>
</symbol>
<symbol id="icon-facebook" viewBox="0 0 17 32">
<path d="M13.767 5.312h3.075v-5.086c-1.304-0.144-2.815-0.226-4.346-0.226-0.047 0-0.094 0-0.141 0l0.007-0c-4.431 0-7.468 2.649-7.468 7.518v4.482h-4.894v5.688h4.893v14.312h5.996v-14.312h4.697l0.746-5.688h-5.442v-3.919c0-1.644 0.465-2.769 2.877-2.769z"></path>
</symbol>
<symbol id="icon-insta" viewBox="0 0 32 32">
<path d="M31.887 9.403c0.152 2.641 0.152 10.552 0 13.196-0.128 2.563-0.714 4.834-2.584 6.703-1.869 1.878-4.141 2.464-6.703 2.585-2.641 0.152-10.558 0.152-13.201 0-2.562-0.128-4.825-0.714-6.703-2.585-1.876-1.869-2.462-4.14-2.584-6.703-0.152-2.644-0.152-10.562 0-13.204 0.128-2.562 0.706-4.834 2.584-6.705 1.878-1.869 4.148-2.456 6.703-2.577 2.641-0.152 10.558-0.152 13.201 0 2.562 0.128 4.834 0.712 6.703 2.585 1.876 1.871 2.462 4.141 2.584 6.705zM24.542 9.374v0c-1.057 0-1.913-0.857-1.913-1.913s0.857-1.913 1.913-1.913v0c1.057 0 1.913 0.857 1.913 1.913s-0.857 1.913-1.913 1.913zM16.003 7.796c-0.004 0-0.008 0-0.012 0-4.523 0-8.19 3.667-8.19 8.19 0 0.005 0 0.009 0 0.014v-0.001c0 0.004 0 0.009 0 0.013 0 4.523 3.667 8.19 8.19 8.19 0.004 0 0.008 0 0.012 0h-0.001c0.003 0 0.008 0 0.012 0 4.523 0 8.19-3.667 8.19-8.19 0-0.005 0-0.009 0-0.014v0.001c0-0.004 0-0.009 0-0.013 0-4.523-3.667-8.19-8.19-8.19-0.004 0-0.008 0-0.012 0h0.001zM16.003 21.334c-2.943-0.006-5.327-2.391-5.332-5.333v-0c0.003-2.944 2.388-5.33 5.332-5.334h0c2.944 0.004 5.329 2.39 5.332 5.334v0c-0.005 2.943-2.389 5.328-5.332 5.334h-0.001zM25.435 28.475c1.395-0.561 2.479-1.646 3.027-3.005l0.013-0.036c0.716-1.802 0.677-5.74 0.652-8.293-0.005-0.424-0.008-0.808-0.008-1.14s0.003-0.716 0.008-1.14c0.025-2.552 0.064-6.484-0.652-8.293-0.561-1.396-1.646-2.481-3.005-3.029l-0.036-0.013c-1.805-0.712-5.762-0.674-8.313-0.65-0.414 0.005-0.792 0.008-1.117 0.008-0.332 0-0.716-0.005-1.14-0.008-2.55-0.025-6.484-0.067-8.29 0.65-1.396 0.561-2.481 1.647-3.029 3.007l-0.013 0.036c-0.712 1.807-0.674 5.765-0.65 8.317 0.003 0.414 0.008 0.792 0.008 1.117 0 0.332-0.005 0.716-0.008 1.14-0.027 2.552-0.067 6.484 0.65 8.293 0.561 1.396 1.646 2.481 3.005 3.029l0.036 0.013c1.805 0.712 5.762 0.674 8.315 0.65 0.413-0.005 0.792-0.008 1.115-0.008 0.332 0 0.716 0.005 1.14 0.008 2.552 0.025 6.484 0.067 8.29-0.65z"></path>
</symbol>
<symbol id="icon-menu-burger" viewBox="0 0 40 32">
<path d="M1.684 1.684h33.684v5.053h-33.684v-5.053zM1.684 11.789h33.684v5.053h-33.684v-5.053zM35.368 21.895h-33.684v5.053h33.684v-5.053z"></path>
</symbol>
<symbol id="icon-pin-point" viewBox="0 0 21 32">
<path d="M10.608 0.32c0.019-0.008 0.037-0.011 0.059-0.011h0.043c0.027 0 0.053 0.005 0.075 0.013 5.819 0.061 10.549 4.483 10.549 9.968 0 1.787-0.52 3.467-1.397 4.915v0.011c-0.012 0.026-0.022 0.047-0.034 0.068l0.002-0.004-0.008 0.008h-0.003v0.013h-0.011l-0.011 0.035-8.827 14.451c-0.068 0.11-0.187 0.183-0.324 0.183s-0.257-0.072-0.323-0.181l-0.001-0.002-8.944-14.461c-0.011-0.015-0.021-0.033-0.031-0.051l-0.001-0.002c-0.004-0.009-0.007-0.021-0.010-0.033l-0-0.002v-0.011c-0.88-1.403-1.404-3.106-1.411-4.932v-0.002c0-5.491 4.731-9.912 10.549-9.973 0.019 0 0.037 0 0.059-0.005zM16.451 10.691c0-3.195-2.589-5.785-5.784-5.787h-0c-3.196 0-5.787 2.591-5.787 5.787v0c0.002 3.195 2.592 5.784 5.787 5.784v0c3.196 0 5.787-2.591 5.787-5.787v0z"></path>
</symbol>
<symbol id="icon-search" viewBox="0 0 31 32">
<path d="M4.612 4.616c1.982-1.992 4.726-3.225 7.757-3.225 0.011 0 0.021 0 0.032 0h-0.002c2.943 0 5.709 1.146 7.787 3.225 4.029 4.029 4.278 10.428 0.749 14.748l5.174 5.176c0.201 0.201 0.326 0.48 0.326 0.787 0 0.615-0.498 1.113-1.113 1.113-0.308 0-0.586-0.125-0.787-0.326l-5.174-5.174c-1.87 1.543-4.291 2.478-6.93 2.478-0.011 0-0.021 0-0.032-0h0.002c-0.009 0-0.020 0-0.030 0-3.031 0-5.775-1.233-7.757-3.225l-0-0c-4.295-4.294-4.295-11.281 0-15.576zM6.187 18.617c1.581 1.59 3.77 2.574 6.189 2.574 0.008 0 0.016 0 0.024-0h-0.001c0.007 0 0.014 0 0.022 0 2.42 0 4.609-0.984 6.191-2.574l0-0c1.587-1.591 2.568-3.787 2.568-6.212s-0.981-4.621-2.568-6.212l0 0c-1.582-1.591-3.772-2.575-6.192-2.575-0.008 0-0.015 0-0.023 0h0.001c-0.006-0-0.014-0-0.021-0-2.419 0-4.609 0.984-6.19 2.574l-0 0c-1.587 1.591-2.568 3.787-2.568 6.212s0.981 4.621 2.568 6.212l-0-0z"></path>
</symbol>
<symbol id="icon-snapchat" viewBox="0 0 34 32">
<path d="M33.701 25.086c-0.343 0.809-1.796 1.403-4.444 1.817-0.135 0.185-0.249 0.976-0.428 1.591-0.107 0.372-0.372 0.59-0.8 0.59h-0.020c-0.62 0-1.268-0.288-2.564-0.288-1.749 0-2.352 0.402-3.71 1.369-1.44 1.026-2.823 1.913-4.884 1.822-2.089 0.155-3.829-1.125-4.809-1.822-1.365-0.974-1.968-1.369-3.71-1.369-1.244 0-2.027 0.315-2.562 0.315-0.017 0.001-0.037 0.002-0.057 0.002-0.369 0-0.678-0.255-0.762-0.598l-0.001-0.005c-0.178-0.612-0.292-1.413-0.43-1.605-1.365-0.213-4.441-0.754-4.519-2.137-0.001-0.012-0.001-0.026-0.001-0.040 0-0.348 0.251-0.636 0.582-0.695l0.004-0.001c4.59-0.761 6.658-5.511 6.745-5.712l0.014-0.036c0.245-0.5 0.3-0.921 0.164-1.246-0.334-0.791-1.772-1.074-2.379-1.316-1.564-0.622-1.783-1.339-1.689-1.829 0.16-0.853 1.433-1.378 2.176-1.028 0.588 0.279 1.111 0.42 1.554 0.42 0.015 0.001 0.034 0.001 0.052 0.001 0.221 0 0.43-0.054 0.613-0.149l-0.007 0.004c-0.135-2.389-0.469-5.804 0.373-7.71 2.231-5.035 6.953-5.426 8.347-5.426l0.665-0.005c3.44 0 6.747 1.78 8.361 5.428 0.843 1.904 0.51 5.305 0.375 7.712 0.165 0.087 0.361 0.139 0.568 0.142h0.001c0.421-0.018 0.91-0.158 1.454-0.416 0.402-0.188 0.951-0.164 1.351 0.005h0.002c0.626 0.224 1.019 0.679 1.029 1.188 0.012 0.649-0.562 1.209-1.707 1.664-0.105 0.043-0.268 0.1-0.434 0.152l-0.057 0.015c-0.647 0.206-1.623 0.519-1.888 1.148-0.137 0.325-0.084 0.747 0.162 1.246 0.005 0.009 0.010 0.020 0.015 0.032l0.001 0.003c0.085 0.201 2.151 4.949 6.743 5.712 0.425 0.071 0.738 0.523 0.51 1.054z"></path>
</symbol>
<symbol id="icon-twitter" viewBox="0 0 40 32">
<path d="M35.888 7.974c0.026 0.35 0.026 0.7 0.026 1.052 0 10.674-8.248 22.974-23.326 22.974-4.644 0-8.96-1.324-12.588-3.626 0.66 0.076 1.294 0.1 1.98 0.1 3.832 0 7.36-1.274 10.178-3.45-3.604-0.074-6.626-2.4-7.666-5.6 0.508 0.076 1.016 0.126 1.548 0.126 0.736 0 1.472-0.1 2.158-0.274-3.756-0.752-6.574-4-6.574-7.926v-0.1c1.092 0.6 2.36 0.976 3.706 1.024-2.209-1.454-3.649-3.92-3.654-6.723v-0.001c0-1.5 0.406-2.876 1.116-4.076 4.091 4.912 10.093 8.111 16.849 8.448l0.055 0.002c-0.126-0.554-0.2-1.191-0.204-1.845l-0-0.003c0-4.452 3.656-8.076 8.2-8.076 2.36 0 4.49 0.974 5.988 2.55 1.96-0.379 3.705-1.056 5.279-1.991l-0.075 0.041c-0.64 1.905-1.914 3.453-3.566 4.429l-0.038 0.021c1.748-0.2 3.344-0.641 4.827-1.292l-0.107 0.042c-1.145 1.627-2.507 3.008-4.062 4.139l-0.050 0.035z"></path>
</symbol>
<symbol id="icon-youtube" viewBox="0 0 45 32">
<path d="M39.904 0.958c1.948 0.56 3.442 2.085 3.951 4.010l0.009 0.040c0.937 3.571 0.937 11.025 0.937 11.025s0 7.454-0.937 11.025c-0.521 1.947-2.017 3.452-3.92 3.976l-0.039 0.009c-3.494 0.958-17.504 0.958-17.504 0.958s-14.010 0-17.504-0.958c-1.941-0.534-3.437-2.039-3.948-3.946l-0.009-0.039c-0.939-3.569-0.939-11.025-0.939-11.025s0-7.454 0.937-11.025c0.517-1.964 2.012-3.489 3.919-4.039l0.040-0.010c3.494-0.958 17.504-0.958 17.504-0.958s14.010 0 17.504 0.958zM17.818 9.265v13.534l11.71-6.767-11.71-6.767z"></path>
</symbol>
<symbol id="icon-aurora" viewBox="0 0 124 32">
<path d="M10.077 24.29l1.384-4.058h8.337l1.384 4.058h5.726l-8.148-22.083h-6.197l-8.148 22.083h5.663zM18.412 16.142h-5.568l2.801-8.179 2.767 8.179zM39.569 23.567l0.026-0.015c0.946-0.574 1.715-1.41 2.223-2.441v3.178h5.41v-17.554h-5.41v9.312c0 1.28-0.314 2.264-0.943 2.957-0.63 0.692-1.49 1.038-2.58 1.038-1.048 0-1.882-0.33-2.502-0.992-0.619-0.66-0.928-1.588-0.928-2.784v-9.532h-5.347v10.193c0 2.348 0.593 4.194 1.778 5.537 1.185 1.342 2.784 2.013 4.798 2.013 1.321 0 2.479-0.305 3.476-0.911zM57.106 24.29h-5.379v-17.554h5.379v3.304l0.019-0.032c0.638-1.019 1.511-1.877 2.577-2.517l-0.029 0.017c1.002-0.609 2.179-0.96 3.437-0.96 0.013 0 0.026 0 0.037 0v5.757h-1.542c-1.427 0-2.532 0.305-3.318 0.913-0.787 0.608-1.181 1.635-1.181 3.083v7.99zM79.080 23.425l0.043-0.021c1.326-0.704 2.429-1.772 3.197-3.11 0.787-1.363 1.181-2.956 1.181-4.781 0-1.824-0.394-3.418-1.181-4.781l-0.020-0.039c-0.747-1.299-1.85-2.367-3.219-3.092-1.374-0.723-2.931-1.085-4.672-1.085s-3.303 0.362-4.687 1.085l-0.043 0.021c-1.333 0.701-2.441 1.77-3.212 3.11-0.787 1.363-1.181 2.957-1.181 4.781s0.394 3.418 1.181 4.781l0.020 0.038c0.75 1.302 1.859 2.37 3.235 3.092 1.385 0.724 2.946 1.086 4.687 1.086s3.298-0.362 4.672-1.086zM74.408 19.823c-1.027 0-1.892-0.367-2.595-1.101s-1.054-1.803-1.054-3.209c0-1.405 0.351-2.479 1.054-3.224s1.567-1.117 2.595-1.117c1.027 0 1.887 0.372 2.58 1.117 0.692 0.745 1.037 1.82 1.037 3.224 0 1.406-0.345 2.475-1.037 3.209s-1.553 1.101-2.58 1.101zM93.644 13.218c0.787-0.608 1.892-0.913 3.319-0.913h1.542v-5.757c-1.238 0-2.386 0.314-3.445 0.943l-0.034 0.019c-1.031 0.621-1.904 1.479-2.561 2.53v-3.305h-5.379v17.554h5.379v-7.99c0-1.448 0.393-2.475 1.18-3.083zM108.224 24.51c-1.446 0-2.741-0.362-3.884-1.086s-2.045-1.767-2.706-3.13c-0.66-1.363-0.991-2.956-0.991-4.781 0-1.845 0.331-3.444 0.991-4.797 0.661-1.353 1.562-2.391 2.707-3.115 1.142-0.723 2.438-1.085 3.884-1.085 1.342 0 2.496 0.305 3.46 0.911l0.023 0.013c0.922 0.582 1.66 1.43 2.117 2.473v-3.178h5.347v17.556h-5.346v-3.178l-0.014 0.035c-0.444 1.007-1.181 1.855-2.126 2.45-0.964 0.608-2.119 0.913-3.46 0.913zM107.172 18.659c0.703 0.755 1.631 1.132 2.784 1.132 1.132 0 2.060-0.387 2.784-1.163 0.724-0.777 1.086-1.814 1.086-3.115 0-1.321-0.362-2.365-1.086-3.129-0.724-0.766-1.652-1.149-2.784-1.149-1.153 0-2.081 0.377-2.784 1.132s-1.054 1.804-1.054 3.146c0 1.343 0.351 2.391 1.054 3.146z"></path>
</symbol>
<symbol id="icon-chevron-left" viewBox="0 0 22 32">
<path d="M20.443 28.854l-13.278-12.854 13.278-12.854-1.977-1.915-15.254 14.769 15.254 14.769 1.977-1.915z"></path>
</symbol>
</defs>
</svg>
