<svg width="19" height="19" fill="none" xmlns="http://www.w3.org/2000/svg"><path fill-rule="evenodd" clip-rule="evenodd" d="M18.933 5.583c-.072-1.522-.42-2.87-1.534-3.981C16.289.49 14.94.143 13.419.067c-1.569-.09-6.27-.09-7.838 0-1.517.072-2.865.42-3.98 1.53C.486 2.708.143 4.057.067 5.578c-.09 1.569-.09 6.27 0 7.84.072 1.522.42 2.87 1.534 3.98 1.115 1.111 2.459 1.459 3.98 1.535 1.569.09 6.27.09 7.838 0 1.521-.072 2.87-.42 3.98-1.535 1.11-1.11 1.458-2.458 1.534-3.98.09-1.57.09-6.267 0-7.835Zm-4.361-.017a1.136 1.136 0 1 0 0-2.272 1.136 1.136 0 0 0 0 2.272Zm-5.07-.937A4.863 4.863 0 0 0 4.632 9.5a4.863 4.863 0 0 0 4.87 4.871 4.863 4.863 0 0 0 4.87-4.871 4.863 4.863 0 0 0-4.87-4.871Zm0 8.038A3.172 3.172 0 0 1 6.336 9.5a3.17 3.17 0 0 1 3.166-3.167A3.17 3.17 0 0 1 12.668 9.5a3.172 3.172 0 0 1-3.166 3.167Zm5.6 4.24a3.206 3.206 0 0 0 1.805-1.806c.425-1.07.402-3.408.387-4.924-.003-.252-.005-.48-.005-.677 0-.197.002-.425.005-.677.015-1.515.038-3.85-.387-4.924a3.206 3.206 0 0 0-1.806-1.806c-1.072-.423-3.421-.4-4.936-.386-.246.003-.47.005-.663.005-.197 0-.425-.003-.677-.005-1.514-.015-3.85-.04-4.922.386A3.206 3.206 0 0 0 2.097 3.9c-.423 1.073-.4 3.423-.386 4.938.002.246.005.47.005.663 0 .197-.003.425-.005.677-.016 1.515-.04 3.85.386 4.924a3.206 3.206 0 0 0 1.806 1.806c1.072.423 3.421.4 4.937.386.245-.003.47-.005.662-.005.197 0 .425.003.677.005 1.515.015 3.85.04 4.922-.386Z" fill="#000"/></svg>