<svg width="8" height="12" fill="none" xmlns="http://www.w3.org/2000/svg"><path fill-rule="evenodd" clip-rule="evenodd" d="M3.978.12C3.985.117 3.992.116 4 .116h.016c.01 0 .02.002.028.005C6.226.144 8 1.802 8 3.859c0 .67-.195 1.3-.524 1.843v.004a.271.271 0 0 1-.012.024l-.003.003H7.46v.005h-.004l-.004.013-3.31 5.419a.142.142 0 0 1-.243 0L.55 5.75l-.003-.002-.002-.001a.164.164 0 0 1-.012-.02.113.113 0 0 1-.004-.013V5.71A3.543 3.543 0 0 1 0 3.86C0 1.801 1.774.143 3.956.12c.007 0 .014 0 .022-.002Zm2.191 3.889A2.17 2.17 0 0 0 4 1.839a2.17 2.17 0 0 0-2.17 2.17A2.17 2.17 0 0 0 4 6.178a2.17 2.17 0 0 0 2.17-2.17Z" fill="#000"/></svg>