<svg width="22" height="23" fill="none" xmlns="http://www.w3.org/2000/svg"><g filter="url(#a)"><path fill-rule="evenodd" clip-rule="evenodd" d="M3.315 3.318A7.864 7.864 0 0 1 8.912 1c2.115 0 4.103.824 5.597 2.318 2.896 2.896 3.075 7.495.538 10.6l3.719 3.72a.8.8 0 1 1-1.132 1.131l-3.719-3.719a7.856 7.856 0 0 1-5.003 1.781 7.864 7.864 0 0 1-5.597-2.318c-3.087-3.086-3.087-8.108 0-11.195Zm1.132 10.063a6.273 6.273 0 0 0 4.465 1.85 6.277 6.277 0 0 0 4.466-1.85 6.323 6.323 0 0 0 0-8.93A6.276 6.276 0 0 0 8.912 2.6a6.276 6.276 0 0 0-4.465 1.85 6.323 6.323 0 0 0 0 8.93Z" fill="#fff"/></g><defs><filter id="a" x="0" y="0" width="22" height="22.003" filterUnits="userSpaceOnUse" color-interpolation-filters="sRGB"><feFlood flood-opacity="0" result="BackgroundImageFix"/><feColorMatrix in="SourceAlpha" values="0 0 0 0 0 0 0 0 0 0 0 0 0 0 0 0 0 0 127 0" result="hardAlpha"/><feOffset dx="1" dy="1"/><feGaussianBlur stdDeviation="1"/><feColorMatrix values="0 0 0 0 0 0 0 0 0 0 0 0 0 0 0 0 0 0 0.1 0"/><feBlend in2="BackgroundImageFix" result="effect1_dropShadow_9201_603"/><feBlend in="SourceGraphic" in2="effect1_dropShadow_9201_603" result="shape"/></filter></defs></svg>