<svg width="19" height="18" fill="none" xmlns="http://www.w3.org/2000/svg"><path d="M18.957 14.111c-.193.455-1.01.789-2.5 1.022-.076.104-.14.549-.241.895-.06.209-.209.332-.45.332h-.011c-.349 0-.713-.162-1.442-.162-.984 0-1.323.226-2.087.77-.81.577-1.588 1.076-2.747 1.025-1.175.087-2.154-.633-2.705-1.025-.768-.548-1.107-.77-2.087-.77-.7 0-1.14.177-1.441.177a.441.441 0 0 1-.461-.338c-.1-.344-.164-.795-.242-.903-.768-.12-2.498-.424-2.542-1.202a.397.397 0 0 1 .329-.414c2.582-.428 3.745-3.1 3.794-3.213l.008-.02c.138-.281.169-.518.092-.701-.188-.445-.997-.604-1.338-.74-.88-.35-1.003-.753-.95-1.029.09-.48.806-.775 1.224-.578.331.157.625.236.874.236a.753.753 0 0 0 .37-.081c-.076-1.344-.264-3.265.21-4.337C5.869.223 8.525.003 9.309.003L9.683 0c1.935 0 3.795 1.001 4.703 3.053.474 1.071.287 2.984.211 4.338a.723.723 0 0 0 .32.08c.237-.01.512-.089.818-.234.226-.106.535-.092.76.003h.001c.352.126.573.382.579.668.007.365-.316.68-.96.936a4.528 4.528 0 0 1-.276.094c-.364.116-.913.292-1.062.646-.077.183-.047.42.091.701a.279.279 0 0 1 .009.02c.048.113 1.21 2.784 3.793 3.213.239.04.415.294.287.593Z" fill="#000"/></svg>