<svg aria-hidden="true" style="position: absolute; width: 0; height: 0; overflow: hidden;" version="1.1" xmlns="http://www.w3.org/2000/svg" xmlns:xlink="http://www.w3.org/1999/xlink">
<defs>
<symbol id="icon-Aurora" viewBox="0 0 124 32">
<path d="M10.077 24.29l1.384-4.058h8.337l1.384 4.058h5.726l-8.148-22.083h-6.197l-8.148 22.083h5.663zM18.412 16.142h-5.568l2.801-8.179 2.767 8.179zM39.569 23.567l0.026-0.015c0.946-0.574 1.715-1.41 2.223-2.441v3.178h5.41v-17.554h-5.41v9.312c0 1.28-0.314 2.264-0.943 2.957-0.63 0.692-1.49 1.038-2.58 1.038-1.048 0-1.882-0.33-2.502-0.992-0.619-0.66-0.928-1.588-0.928-2.784v-9.532h-5.347v10.193c0 2.348 0.593 4.194 1.778 5.537 1.185 1.342 2.784 2.013 4.798 2.013 1.321 0 2.479-0.305 3.476-0.911zM57.106 24.29h-5.379v-17.554h5.379v3.304l0.019-0.032c0.638-1.019 1.511-1.877 2.577-2.517l-0.029 0.017c1.002-0.609 2.179-0.96 3.437-0.96 0.013 0 0.026 0 0.037 0v5.757h-1.542c-1.427 0-2.532 0.305-3.318 0.913-0.787 0.608-1.181 1.635-1.181 3.083v7.99zM79.080 23.425l0.043-0.021c1.326-0.704 2.429-1.772 3.197-3.11 0.787-1.363 1.181-2.956 1.181-4.781 0-1.824-0.394-3.418-1.181-4.781l-0.020-0.039c-0.747-1.299-1.85-2.367-3.219-3.092-1.374-0.723-2.931-1.085-4.672-1.085s-3.303 0.362-4.687 1.085l-0.043 0.021c-1.333 0.701-2.441 1.77-3.212 3.11-0.787 1.363-1.181 2.957-1.181 4.781s0.394 3.418 1.181 4.781l0.020 0.038c0.75 1.302 1.859 2.37 3.235 3.092 1.385 0.724 2.946 1.086 4.687 1.086s3.298-0.362 4.672-1.086zM74.408 19.823c-1.027 0-1.892-0.367-2.595-1.101s-1.054-1.803-1.054-3.209c0-1.405 0.351-2.479 1.054-3.224s1.567-1.117 2.595-1.117c1.027 0 1.887 0.372 2.58 1.117 0.692 0.745 1.037 1.82 1.037 3.224 0 1.406-0.345 2.475-1.037 3.209s-1.553 1.101-2.58 1.101zM93.644 13.218c0.787-0.608 1.892-0.913 3.319-0.913h1.542v-5.757c-1.238 0-2.386 0.314-3.445 0.943l-0.034 0.019c-1.031 0.621-1.904 1.479-2.561 2.53v-3.305h-5.379v17.554h5.379v-7.99c0-1.448 0.393-2.475 1.18-3.083zM108.224 24.51c-1.446 0-2.741-0.362-3.884-1.086s-2.045-1.767-2.706-3.13c-0.66-1.363-0.991-2.956-0.991-4.781 0-1.845 0.331-3.444 0.991-4.797 0.661-1.353 1.562-2.391 2.707-3.115 1.142-0.723 2.438-1.085 3.884-1.085 1.342 0 2.496 0.305 3.46 0.911l0.023 0.013c0.922 0.582 1.66 1.43 2.117 2.473v-3.178h5.347v17.556h-5.346v-3.178l-0.014 0.035c-0.444 1.007-1.181 1.855-2.126 2.45-0.964 0.608-2.119 0.913-3.46 0.913zM107.172 18.659c0.703 0.755 1.631 1.132 2.784 1.132 1.132 0 2.060-0.387 2.784-1.163 0.724-0.777 1.086-1.814 1.086-3.115 0-1.321-0.362-2.365-1.086-3.129-0.724-0.766-1.652-1.149-2.784-1.149-1.153 0-2.081 0.377-2.784 1.132s-1.054 1.804-1.054 3.146c0 1.343 0.351 2.391 1.054 3.146z"></path>
</symbol>
</defs>
</svg>
